<svg xmlns="http://www.w3.org/2000/svg" viewBox="0 0 1200 900"><defs><linearGradient id="b" y2="1"><stop stop-color="#31343a"/><stop offset="1" stop-color="#121316"/></linearGradient></defs><rect width="1200" height="900" fill="url(#b)"/><path d="M0 650 L1200 500 V900 H0Z" fill="#24262b"/><g stroke="#4c4f56" stroke-width="8"><path d="M0 140H1200"/><path d="M200 0V620M600 0V560M1000 0V520"/></g><g opacity=".75"><ellipse cx="620" cy="690" rx="380" ry="55" fill="#000"/><path d="M255 650 C315 520 420 470 570 445 L790 450 C880 475 960 550 1015 650 L990 700 H230Z" fill="#c7c9cb"/><circle cx="400" cy="685" r="72" fill="#16171a"/><circle cx="850" cy="685" r="72" fill="#16171a"/><path d="M480 470 L600 410H760L850 520H390Z" fill="#1d2730"/></g><text x="80" y="100" fill="#fff" font-size="42" font-family="Arial" font-weight="700">YOUR SHOWROOM IMAGE</text></svg>